<svg xmlns="http://www.w3.org/2000/svg" width="90px" height="90px" viewBox="0 0 108.531 108.531">
  <g id="_023-flammable" data-name="023-flammable" transform="translate(-9.735 -9.735)">
    <path id="Path_107" data-name="Path 107" d="M117.752,62.763,65.237,10.248a1.749,1.749,0,0,0-2.475,0L10.248,62.763a1.749,1.749,0,0,0,0,2.475l52.515,52.515a1.749,1.749,0,0,0,2.475,0l52.515-52.515a1.749,1.749,0,0,0,0-2.475ZM64,114.04,13.96,64,64,13.96,114.04,64Z" fill="#fff"/>
    <path id="Path_108" data-name="Path 108" d="M55.282,58.137a1.106,1.106,0,0,1-.566,1.1,1.741,1.741,0,0,1-1.783,0c-.764-.478-1.109-1.61-.97-3.191A1.75,1.75,0,0,0,48.855,54.8c-.075.093-7.407,9.442-1.15,19.764a18.636,18.636,0,0,0,5.574,5.831,1.743,1.743,0,0,0,1.907.021,1.763,1.763,0,0,0,.8-1.741c-.021-.151-.044-.3-.057-.457a5.99,5.99,0,0,1,1.537-5.149c.253-.31.493-.619.708-.939-.029.127-.062.258-.1.391A1.75,1.75,0,0,0,60.7,74.461a9.1,9.1,0,0,0,3.689-5.3,7.533,7.533,0,0,0,.146-1.018,7.413,7.413,0,0,1,.792,4.154,3.342,3.342,0,0,0,1.637,3.155,3.728,3.728,0,0,0,3.863-.025l.052-.033a6.665,6.665,0,0,1-.529,4.229,1.75,1.75,0,0,0,2.337,2.33,15.522,15.522,0,0,0,8.978-13.281c.576-7.224-1.958-10.332-3.808-12.6-1.754-2.152-2.635-3.232-.845-7.352a1.75,1.75,0,0,0-1.978-2.407,10.074,10.074,0,0,0-6.006,4.335,9,9,0,0,0-1.212,3.6,9.242,9.242,0,0,1-1.277-3.066c-.534-2.553.15-5.3,2.032-8.16a1.75,1.75,0,0,0-1.957-2.641A16.888,16.888,0,0,0,55.282,58.137ZM63.289,46.2a12.251,12.251,0,0,0-.166,5.734,14.673,14.673,0,0,0,5.955,8.552A1.75,1.75,0,0,0,71.7,58.537c-.7-2.482-.6-4.522.309-6.062a5.189,5.189,0,0,1,.562-.775c-.271,3.1,1.167,4.861,2.57,6.582,1.718,2.108,3.5,4.288,3.031,10.112a12.368,12.368,0,0,1-3.66,8.1,11.467,11.467,0,0,0-2.243-6.363,1.75,1.75,0,0,0-3.11,1.246c.06.679-.088,1.025-.195,1.085a.223.223,0,0,1-.145.013,10.173,10.173,0,0,0-6.932-10.718A1.75,1.75,0,0,0,59.93,64.4a5.665,5.665,0,0,1,1.1,3.588c-.02-.035-.04-.069-.06-.1a6.378,6.378,0,0,0-3.87-2.8A1.75,1.75,0,0,0,55.121,67.5c.822,1.892.547,2.23-.367,3.351a9.052,9.052,0,0,0-2.181,4.372A15.05,15.05,0,0,1,50.7,72.739,13.425,13.425,0,0,1,49.564,60.75a5.181,5.181,0,0,0,6.957,1.482,4.6,4.6,0,0,0,2.252-4.346c-.428-6,2.068-9.61,4.516-11.686Z" fill="#fff"/>
    <path id="Path_109" data-name="Path 109" d="M62.763,22.154,22.154,62.763a1.749,1.749,0,0,0,0,2.475l40.609,40.608a1.749,1.749,0,0,0,2.475,0l40.609-40.608a1.749,1.749,0,0,0,0-2.475L65.237,22.154a1.749,1.749,0,0,0-2.474,0ZM102.134,64,64,102.134,25.866,64,64,25.866Z" fill="#fff"/>
  </g>
</svg>
