<svg id="Layer_1" height="90px" viewBox="0 0 128 128" width="90px" xmlns="http://www.w3.org/2000/svg" data-name="Layer 1"><path d="m117.752 62.763-52.515-52.515a1.749 1.749 0 0 0 -2.475 0l-52.514 52.515a1.749 1.749 0 0 0 0 2.475l52.515 52.515a1.749 1.749 0 0 0 2.475 0l52.515-52.515a1.749 1.749 0 0 0 -.001-2.475zm-53.752 51.277-50.04-50.04 50.04-50.04 50.04 50.04z"/><path d="m55.282 58.137a1.106 1.106 0 0 1 -.566 1.1 1.741 1.741 0 0 1 -1.783 0c-.764-.478-1.109-1.61-.97-3.191a1.75 1.75 0 0 0 -3.108-1.248c-.075.093-7.407 9.442-1.15 19.764a18.636 18.636 0 0 0 5.574 5.831 1.743 1.743 0 0 0 1.907.021 1.763 1.763 0 0 0 .8-1.741c-.021-.151-.044-.3-.057-.457a5.99 5.99 0 0 1 1.537-5.149c.253-.31.493-.619.708-.939-.029.127-.062.258-.1.391a1.75 1.75 0 0 0 2.626 1.942 9.1 9.1 0 0 0 3.689-5.3 7.532 7.532 0 0 0 .146-1.018 7.413 7.413 0 0 1 .792 4.154 3.342 3.342 0 0 0 1.637 3.155 3.728 3.728 0 0 0 3.863-.025l.052-.033a6.665 6.665 0 0 1 -.529 4.229 1.75 1.75 0 0 0 2.337 2.33 15.522 15.522 0 0 0 8.978-13.281c.576-7.224-1.958-10.332-3.808-12.6-1.754-2.152-2.635-3.232-.845-7.352a1.75 1.75 0 0 0 -1.978-2.407 10.074 10.074 0 0 0 -6.006 4.335 9 9 0 0 0 -1.212 3.595 9.242 9.242 0 0 1 -1.277-3.066c-.534-2.553.15-5.3 2.032-8.16a1.75 1.75 0 0 0 -1.957-2.641 16.888 16.888 0 0 0 -11.332 17.761zm8.007-11.937a12.251 12.251 0 0 0 -.166 5.734 14.673 14.673 0 0 0 5.955 8.552 1.75 1.75 0 0 0 2.622-1.949c-.7-2.482-.6-4.522.309-6.062a5.189 5.189 0 0 1 .562-.775c-.271 3.1 1.167 4.861 2.57 6.582 1.718 2.108 3.5 4.288 3.031 10.112a12.368 12.368 0 0 1 -3.66 8.1 11.467 11.467 0 0 0 -2.243-6.363 1.75 1.75 0 0 0 -3.11 1.246c.06.679-.088 1.025-.195 1.085a.223.223 0 0 1 -.145.013 10.173 10.173 0 0 0 -6.932-10.718 1.75 1.75 0 0 0 -1.957 2.64 5.665 5.665 0 0 1 1.1 3.588c-.02-.035-.04-.069-.06-.1a6.378 6.378 0 0 0 -3.87-2.797 1.75 1.75 0 0 0 -1.979 2.412c.822 1.892.547 2.23-.367 3.351a9.052 9.052 0 0 0 -2.181 4.372 15.05 15.05 0 0 1 -1.873-2.484 13.425 13.425 0 0 1 -1.136-11.989 5.181 5.181 0 0 0 6.957 1.482 4.6 4.6 0 0 0 2.252-4.346c-.428-5.996 2.068-9.61 4.516-11.686z"/><path d="m62.763 22.154-40.609 40.609a1.749 1.749 0 0 0 0 2.475l40.609 40.608a1.749 1.749 0 0 0 2.475 0l40.609-40.608a1.749 1.749 0 0 0 0-2.475l-40.61-40.609a1.749 1.749 0 0 0 -2.474 0zm39.371 41.846-38.134 38.134-38.134-38.134 38.134-38.134z"/></svg>