<?xml version="1.0"?>
<svg xmlns="http://www.w3.org/2000/svg" id="Layer_1" data-name="Layer 1" viewBox="0 0 128 128" width="90px" height="90px"><title>WAREHOUSE</title><path d="M116.5,106h-5.75V49.5h5.75a1.75,1.75,0,0,0,.824-3.294l-51.5-27.5a1.753,1.753,0,0,0-1.624-.013l-53.5,27.5a1.75,1.75,0,0,0,.8,3.307h5.75V106H11.5a1.75,1.75,0,0,0,0,3.5h105a1.75,1.75,0,0,0,0-3.5Zm-9.25,0h-4.5V49.5h4.5ZM90,80H78.75V55.75A1.75,1.75,0,0,0,77,54H51a1.75,1.75,0,0,0-1.75,1.75V80H38a1.75,1.75,0,0,0-1.75,1.75V106h-7.5V49.5h70.5V106h-7.5V81.75A1.75,1.75,0,0,0,90,80ZM64,80H52.75V57.5h6.167v6.917a1.75,1.75,0,0,0,2.843,1.367L64,63.991l2.24,1.792a1.75,1.75,0,0,0,2.843-1.367V57.5H75.25V80H64ZM49.417,83.5h3.167v3.276l-.49-.393a1.751,1.751,0,0,0-2.187,0l-.49.393Zm13-26h3.167v3.276l-.49-.393a1.751,1.751,0,0,0-2.187,0l-.49.393Zm13,26h3.167v3.276l-.49-.393a1.751,1.751,0,0,0-2.187,0l-.49.393ZM64.984,22.226,109.507,46H18.732ZM20.75,49.5h4.5V106h-4.5Zm19,34h6.167v6.917a1.75,1.75,0,0,0,2.843,1.367L51,89.991l2.24,1.792a1.75,1.75,0,0,0,2.843-1.367V83.5H62.25V106H39.75Zm26,22.5V83.5h6.167v6.917a1.75,1.75,0,0,0,2.843,1.367L77,89.991l2.24,1.792a1.75,1.75,0,0,0,2.843-1.367V83.5H88.25V106Z"/></svg>
