<svg xmlns="http://www.w3.org/2000/svg" width="40px" height="40px" viewBox="0 0 94.754 107.791">
  <g id="_032-list" data-name="032-list" transform="translate(-16.623 -10.107)">
    <path id="Path_151" data-name="Path 151" d="M111.332,97.039a5.85,5.85,0,0,0-6.521-5.091l-7.186.885-5.5-44.648a1.75,1.75,0,0,0-1.951-1.523l-4.875.6L81.987,20.4a1.75,1.75,0,0,0-1.951-1.523l-38.185,4.7-1.027-8.336A5.864,5.864,0,0,0,34.3,10.15L21.758,11.7a5.85,5.85,0,1,0,1.431,11.612l6.74-.831,8.54,69.3A14.226,14.226,0,0,0,46.247,117.9a14.571,14.571,0,0,0,1.766-.108,14.137,14.137,0,0,0,9.479-5.367,14.288,14.288,0,0,0,1.817-3.075l46.932-5.783a5.849,5.849,0,0,0,5.091-6.521Zm-17.18-3.777L59.13,97.577a14.226,14.226,0,0,0-9.1-7.643L45.8,55.657l13.987-1.724,1.687,13.689a1.75,1.75,0,0,0,2.989,1.009l4.37-4.476,5.327,3.281a1.75,1.75,0,0,0,2.655-1.7L75.131,52.043l13.733-1.692ZM72.9,62.547,69.481,60.44a1.752,1.752,0,0,0-2.17.268l-2.8,2.872L63.265,53.505l8.393-1.034Zm-7.95-30.3-2.487-1.532a1.75,1.75,0,0,0-2.17.268l-2.041,2.09-.97-7.872,6.7-.825ZM53.808,25.631l1.415,11.485a1.75,1.75,0,0,0,2.989,1.009l3.606-3.693,4.4,2.707a1.75,1.75,0,0,0,2.655-1.7l-1.415-11.49,11.274-1.39,3.1,25.131L45.376,52.183l-3.1-25.131Zm-20.62-5.318a1.75,1.75,0,0,0-1.951-1.523L22.76,19.835a2.349,2.349,0,0,1-.575-4.663l12.544-1.546a2.347,2.347,0,0,1,2.619,2.044L46.44,89.451a13.736,13.736,0,0,0-4.648.7Zm14.4,94a10.728,10.728,0,1,1,7.145-4.046,10.728,10.728,0,0,1-7.145,4.046ZM107.378,99.2a2.329,2.329,0,0,1-1.564.886l-45.463,5.6a14.28,14.28,0,0,0,.046-3.764c-.04-.323-.1-.638-.165-.954l45.008-5.547a2.349,2.349,0,0,1,2.139,3.777Z" fill="#fff"/>
    <path id="Path_152" data-name="Path 152" d="M49.758,99.2a5.66,5.66,0,1,0-3.5,10.123,5.907,5.907,0,0,0,.7-.043,5.661,5.661,0,0,0,2.8-10.08Zm-1.78,5.791a2.16,2.16,0,1,1-1.967-3.474,2.266,2.266,0,0,1,.269-.017,2.161,2.161,0,0,1,1.7,3.49Z" fill="#fff"/>
  </g>
</svg>
