<svg xmlns="http://www.w3.org/2000/svg" width="40px" height="40px" viewBox="0 0 91.484 108.5">
  <path id="_016-delivery_man" data-name="016-delivery man" d="M94.965,48.419V23.613A13.879,13.879,0,0,0,81.1,9.75H79.294A13.879,13.879,0,0,0,65.431,23.613V24.66H56.058a1.75,1.75,0,0,0,0,3.5H68v5.415A13.543,13.543,0,0,0,77.316,46.4v1.09h-2.19a1.75,1.75,0,0,0-1.75,1.75V76.063H63.669V35.9a1.75,1.75,0,0,0-1.75-1.75H20.008a1.75,1.75,0,0,0-1.75,1.75V77.81a1.75,1.75,0,0,0,1.75,1.75H25.3a8.756,8.756,0,0,0,8.654,7.522H45.438v5.772a1.75,1.75,0,0,0,1.75,1.75H57.4a1.75,1.75,0,0,0,1.75-1.75v-2.19H73.376V116.5a1.75,1.75,0,0,0,1.75,1.75h32.866a1.75,1.75,0,0,0,1.75-1.75V68.446A21,21,0,0,0,94.965,48.419ZM68.931,23.613A10.375,10.375,0,0,1,79.294,13.25H81.1A10.375,10.375,0,0,1,91.465,23.613V24.66H68.931ZM79.425,43.341A10.016,10.016,0,0,1,71.5,33.575V28.16H91.465V47.677a20.988,20.988,0,0,0-2.685-.192H80.816V45.054a1.75,1.75,0,0,0-1.391-1.713ZM44.587,37.653v8.579l-2.53-2.024a1.749,1.749,0,0,0-2.187,0l-2.53,2.023V37.653Zm-22.829,0H33.84v12.22a1.75,1.75,0,0,0,2.843,1.366l4.28-3.424,4.28,3.424a1.75,1.75,0,0,0,2.843-1.366V37.653H60.169v38.41H21.758Zm12.19,45.933a5.249,5.249,0,0,1-5.09-4.022h16.58v4.022Zm21.7,7.522h-6.71V79.563h6.709V91.108Zm3.5-11.545H75.126a1.75,1.75,0,0,0,1.75-1.75V58.772a9.37,9.37,0,0,1,7.6,9.19V87.168H59.146Zm27.084,11.1a1.75,1.75,0,0,0,1.75-1.75V67.963a12.864,12.864,0,0,0-11.1-12.721V50.985h11.9a17.481,17.481,0,0,1,17.461,17.461v33.229H76.876V90.668Zm20.011,24.082H76.876V105.17h29.366Z" transform="translate(-18.258 -9.75)" fill="#fff"/>
</svg>
