<svg xmlns="http://www.w3.org/2000/svg" width="40px" height="40px" viewBox="0 0 108.5 101.053">
  <g id="Door_to_pol" data-name="Door to pol" transform="translate(-9.75 -13.474)">
    <path id="Path_218" data-name="Path 218" d="M116.5,111.026h-5.75v-26.7a1.75,1.75,0,0,0-1.75-1.75H68.833V75.693h36a1.75,1.75,0,0,0,1.75-1.75V64.609a1.75,1.75,0,0,0-1.75-1.75H90.442V15.224a1.75,1.75,0,0,0-1.75-1.75H39.308a1.75,1.75,0,0,0-1.75,1.75V62.859H23.167a1.75,1.75,0,0,0-1.75,1.75v9.333a1.75,1.75,0,0,0,1.75,1.75h36v6.885H19a1.75,1.75,0,0,0-1.75,1.75v26.7H11.5a1.75,1.75,0,0,0,0,3.5h105a1.75,1.75,0,1,0,0-3.5ZM68.581,16.974v11.07l-3.488-2.791a1.749,1.749,0,0,0-2.186,0l-3.488,2.791V16.974Zm-27.523,0H55.919V31.686a1.75,1.75,0,0,0,2.843,1.367L64,28.862l5.238,4.19a1.75,1.75,0,0,0,2.843-1.367V16.974H86.942V62.859H41.058ZM24.917,66.359h78.166v5.833H24.917Zm37.75,9.333h2.666v6.885H62.667ZM20.75,86.078h86.5v24.948H20.75Z"/>
    <path id="Path_219" data-name="Path 219" d="M79.333,89.193H48.667a1.75,1.75,0,0,0-1.75,1.75v6.609a1.75,1.75,0,0,0,1.75,1.75H79.333a1.75,1.75,0,0,0,1.75-1.75V90.943a1.75,1.75,0,0,0-1.75-1.75ZM77.583,95.8H50.417V92.693H77.583Z"/>
    <path id="Path_220" data-name="Path 220" d="M32.359,89.193H25.75A1.75,1.75,0,0,0,24,90.943v6.609a1.75,1.75,0,0,0,1.75,1.75h6.609a1.75,1.75,0,0,0,1.75-1.75V90.943A1.75,1.75,0,0,0,32.359,89.193ZM30.609,95.8H27.5V92.693h3.109Z"/>
  </g>
</svg>
