<svg id="Layer_1" height="40px" viewBox="0 0 128 128" width="40px" xmlns="http://www.w3.org/2000/svg" data-name="Layer 1"><path d="m111.332 97.039a5.85 5.85 0 0 0 -6.521-5.091l-7.186.885-5.5-44.648a1.75 1.75 0 0 0 -1.951-1.523l-4.875.6-3.312-26.867a1.75 1.75 0 0 0 -1.951-1.523l-38.185 4.705-1.027-8.336a5.864 5.864 0 0 0 -6.524-5.091l-12.542 1.55a5.85 5.85 0 0 0 1.431 11.612l6.74-.831 8.54 69.3a14.226 14.226 0 0 0 7.778 26.117 14.582 14.582 0 0 0 1.769-.108 14.137 14.137 0 0 0 9.476-5.367 14.288 14.288 0 0 0 1.817-3.075l46.932-5.783a5.849 5.849 0 0 0 5.091-6.521zm-17.18-3.777-35.022 4.315a14.226 14.226 0 0 0 -9.1-7.643l-4.23-34.277 13.987-1.724 1.687 13.689a1.75 1.75 0 0 0 2.989 1.009l4.37-4.476 5.327 3.281a1.75 1.75 0 0 0 2.655-1.7l-1.684-13.693 13.733-1.692zm-21.252-30.715-3.419-2.107a1.752 1.752 0 0 0 -2.17.268l-2.8 2.872-1.246-10.075 8.393-1.034zm-7.95-30.3-2.487-1.532a1.75 1.75 0 0 0 -2.17.268l-2.041 2.09-.97-7.872 6.7-.825zm-11.142-6.616 1.415 11.485a1.75 1.75 0 0 0 2.989 1.009l3.606-3.693 4.395 2.707a1.75 1.75 0 0 0 2.655-1.7l-1.415-11.49 11.274-1.39 3.1 25.131-36.451 4.493-3.1-25.131zm-20.62-5.318a1.75 1.75 0 0 0 -1.951-1.523l-8.477 1.045a2.349 2.349 0 1 1 -.575-4.663l12.544-1.546a2.347 2.347 0 0 1 2.619 2.044l9.092 73.781a13.736 13.736 0 0 0 -4.648.7zm14.4 94a10.728 10.728 0 1 1 7.145-4.046 10.737 10.737 0 0 1 -7.146 4.044zm59.79-15.113a2.329 2.329 0 0 1 -1.564.886l-45.463 5.6a14.28 14.28 0 0 0 .046-3.764c-.04-.323-.1-.638-.165-.954l45.008-5.547a2.349 2.349 0 0 1 2.139 3.777z"/><path d="m49.758 99.2a5.66 5.66 0 1 0 -3.5 10.123 5.906 5.906 0 0 0 .7-.043 5.661 5.661 0 0 0 2.8-10.08zm-1.78 5.791a2.16 2.16 0 1 1 -1.967-3.474 2.267 2.267 0 0 1 .269-.017 2.161 2.161 0 0 1 1.7 3.49z"/></svg>