<svg xmlns="http://www.w3.org/2000/svg" width="90px" height="90px" viewBox="0 0 108.7 73.948">
  <g id="_024-forklift" data-name="024-forklift" transform="translate(-9.7 -27.1)">
    <path id="Path_110" data-name="Path 110" d="M116.5,57.9h-5v-29a1.8,1.8,0,0,0-3.6,0v29h-1.3v-29a1.8,1.8,0,0,0-3.6,0v29H99.4V36.1a1.793,1.793,0,0,0-1.8-1.8H66.5a1.6,1.6,0,0,0-1.4.8S52.5,53.4,49,58.6a1.929,1.929,0,0,0-.3,1v18H46.9V28.9a1.8,1.8,0,1,0-3.6,0V77.7H41.6V56a1.793,1.793,0,0,0-1.8-1.8H16.5A1.793,1.793,0,0,0,14.7,56V77.7H11.5a1.8,1.8,0,0,0,0,3.6H48.6V91.7a1.793,1.793,0,0,0,1.8,1.8h6.5A15.019,15.019,0,0,0,77.5,99,14.525,14.525,0,0,0,83,93.5H93.6a9.316,9.316,0,0,0,18.3,0h4.7a1.793,1.793,0,0,0,1.8-1.8v-32a1.95,1.95,0,0,0-1.9-1.8Zm-87.1-.2v2.4l-.1-.1a1.8,1.8,0,0,0-2.2,0l-.2.1V57.7Zm-11.2,0h5.2v6.1a1.774,1.774,0,0,0,1.7,1.8,1.5,1.5,0,0,0,1.1-.4l1.9-1.5L30,65.2a1.76,1.76,0,0,0,2.5-.3,2.1,2.1,0,0,0,.4-1.1V57.7h5.2V77.6H18.2ZM67.5,37.8H96.1V57.9H53.7ZM70,97.4A11.6,11.6,0,1,1,81.6,85.8,11.608,11.608,0,0,1,70,97.4Zm32.7,0a5.8,5.8,0,1,1,5.8-5.8A5.8,5.8,0,0,1,102.7,97.4Zm12.1-7.6h-2.9a9.316,9.316,0,0,0-18.3,0H84.5a15.069,15.069,0,0,0-29-8.2,14.308,14.308,0,0,0,0,8.2H52.2V61.4h62.6Z" fill="#fff"/>
    <path id="Path_111" data-name="Path 111" d="M87.4,39.5H69.9a1.6,1.6,0,0,0-1.4.8l-9,13.2a1.752,1.752,0,0,0,.5,2.4,1.689,1.689,0,0,0,1,.3H87.5a1.793,1.793,0,0,0,1.8-1.8V41.3a2.027,2.027,0,0,0-1.9-1.8ZM85.6,52.7H64.2L70.8,43H85.6Z" fill="#fff"/>
  </g>
</svg>
