<svg id="Layer_1" enable-background="new 0 0 128 128" height="90px" viewBox="0 0 128 128" width="90px" xmlns="http://www.w3.org/2000/svg"><path d="m116.5 57.9h-5v-29c0-1-.8-1.8-1.8-1.8s-1.8.8-1.8 1.8v29h-1.3v-29c0-1-.8-1.8-1.8-1.8s-1.8.8-1.8 1.8v29h-3.6v-21.8c0-1-.8-1.8-1.8-1.8h-31.1c-.6 0-1.1.3-1.4.8 0 0-12.6 18.3-16.1 23.5-.2.3-.3.7-.3 1v18h-1.8v-48.7c0-1-.8-1.8-1.8-1.8s-1.8.8-1.8 1.8v48.8h-1.7v-21.7c0-1-.8-1.8-1.8-1.8h-23.3c-1 0-1.8.8-1.8 1.8v21.7h-3.2c-1 0-1.8.8-1.8 1.8s.8 1.8 1.8 1.8h37.1v10.4c0 1 .8 1.8 1.8 1.8h6.5c4.1 7.2 13.3 9.7 20.6 5.5 2.3-1.3 4.2-3.2 5.5-5.5h10.6c1 5 5.9 8.3 10.9 7.4 3.7-.7 6.6-3.6 7.4-7.4h4.7c1 0 1.8-.8 1.8-1.8v-32c-.1-1-.9-1.8-1.9-1.8zm-87.1-.2v2.4l-.1-.1c-.6-.5-1.5-.5-2.2 0l-.2.1v-2.4zm-11.2 0h5.2v6.1c0 1 .8 1.8 1.7 1.8.4 0 .8-.1 1.1-.4l1.9-1.5 1.9 1.5c.8.6 1.9.5 2.5-.3.2-.3.4-.7.4-1.1v-6.1h5.2v19.9h-19.9zm49.3-19.9h28.6v20.1h-42.4zm2.5 59.6c-6.4 0-11.6-5.2-11.6-11.6s5.2-11.6 11.6-11.6 11.6 5.2 11.6 11.6c-.1 6.4-5.2 11.6-11.6 11.6zm32.7 0c-3.2 0-5.8-2.6-5.8-5.8s2.6-5.8 5.8-5.8 5.8 2.6 5.8 5.8c0 3.2-2.6 5.8-5.8 5.8zm12.1-7.6h-2.9c-1-5-5.9-8.3-10.9-7.4-3.7.7-6.6 3.6-7.4 7.4h-9.1c2.3-8-2.4-16.4-10.4-18.6-8-2.3-16.4 2.4-18.6 10.4-.8 2.7-.8 5.5 0 8.2h-3.3v-28.4h62.6z"/><path d="m87.4 39.5h-17.5c-.6 0-1.1.3-1.4.8l-9 13.2c-.5.8-.3 1.9.5 2.4.3.2.6.3 1 .3h26.5c1 0 1.8-.8 1.8-1.8v-13.1c-.2-1-.9-1.8-1.9-1.8zm-1.8 13.2h-21.4l6.6-9.7h14.8z"/></svg>