<svg xmlns="http://www.w3.org/2000/svg" width="90px" height="90px" viewBox="0 0 108.5 85.22">
  <path id="_004-box" data-name="004-box" d="M116.5,103.11h-8.661V35.416a1.735,1.735,0,0,0-.429-1.136c-.009-.011-.01-.023-.02-.034L96.345,21.97a1.748,1.748,0,0,0-1.3-.58H32.956a1.748,1.748,0,0,0-1.3.58L20.61,34.245c-.006.007-.006.018-.012.024a1.735,1.735,0,0,0-.437,1.146V103.11H11.5a1.75,1.75,0,0,0,0,3.5h105a1.75,1.75,0,1,0,0-3.5ZM102.161,33.666H76.644L71.709,24.89H94.265Zm-48.031,3.5H73.871v14.5l-9.063-4.711a1.75,1.75,0,0,0-1.614,0l-9.063,4.711ZM67.694,24.89l4.935,8.775H55.371l4.935-8.775Zm-33.958,0H56.291l-4.935,8.775H25.839ZM23.661,103.11V37.166H50.629V54.551A1.75,1.75,0,0,0,53.187,56.1L64,50.482,74.813,56.1a1.75,1.75,0,0,0,2.557-1.553V37.166h26.969V103.11Z" transform="translate(-9.75 -21.39)" fill="#fff"/>
</svg>
