<svg xmlns="http://www.w3.org/2000/svg" width="90px" height="90px" viewBox="0 0 108.501 80.868">
  <g id="_020-drone" data-name="020-drone" transform="translate(-9.75 -23.566)">
    <path id="Path_98" data-name="Path 98" d="M116.5,30.021H103.744V29.009a5.443,5.443,0,0,0-10.886,0v1.012H86.247a7.9,7.9,0,0,0-7.895,7.894,1.75,1.75,0,0,0,1.75,1.75H92.858v8.147H35.142V39.665h6.611a7.9,7.9,0,0,0,7.9-7.894,1.75,1.75,0,0,0-1.75-1.75H35.142V29.009a5.443,5.443,0,0,0-10.886,0v1.012H17.645a7.9,7.9,0,0,0-7.9,7.894,1.75,1.75,0,0,0,1.75,1.75H24.256v25.1a1.75,1.75,0,0,0,1.75,1.75h7.386a1.75,1.75,0,0,0,1.75-1.75V60.97h.5a14.694,14.694,0,0,1,6.173,1.358L19.981,101.837a1.75,1.75,0,1,0,3.063,1.693L44.8,64.165a14.636,14.636,0,0,1,3.868,4.714l.539,1.041a1.749,1.749,0,0,0,1.554.945h8.508v5.189H46.8a1.75,1.75,0,0,0-1.75,1.75V98.717a1.75,1.75,0,0,0,1.75,1.75H81.2a1.75,1.75,0,0,0,1.75-1.75V77.8a1.75,1.75,0,0,0-1.75-1.75H68.732V70.865H77.24a1.749,1.749,0,0,0,1.606-1.057,14.6,14.6,0,0,1,4.346-5.66l21.764,39.382a1.75,1.75,0,1,0,3.063-1.693L86.176,62.313A14.674,14.674,0,0,1,92.31,60.97h.549v3.79a1.75,1.75,0,0,0,1.75,1.75H102a1.75,1.75,0,0,0,1.75-1.75v-25.1h6.611a7.9,7.9,0,0,0,7.895-7.894,1.75,1.75,0,0,0-1.751-1.75ZM79.454,96.967H48.546V79.554H79.454ZM62.768,76.054V70.865h2.465v5.189Zm33.59-47.045a1.943,1.943,0,0,1,3.886,0v1.012H96.358Zm-68.6,0a1.943,1.943,0,1,1,3.886,0v1.012H27.756ZM17.645,33.521h28.14a4.4,4.4,0,0,1-4.031,2.644H13.613a4.4,4.4,0,0,1,4.032-2.644Zm14,29.489H27.756V39.665h3.886ZM92.31,57.47a18.145,18.145,0,0,0-16.18,9.9H51.824l-.05-.1a18.094,18.094,0,0,0-16.129-9.8h-.5V51.312H92.858V57.47Zm7.935,5.54H96.358V39.665h3.886Zm10.111-26.845H82.216a4.4,4.4,0,0,1,4.031-2.644h28.14a4.4,4.4,0,0,1-4.032,2.644Z" fill="#fff"/>
    <path id="Path_99" data-name="Path 99" d="M58.455,81.358a6.9,6.9,0,1,0,6.9,6.9,6.9,6.9,0,0,0-6.9-6.9Zm0,10.305a3.4,3.4,0,1,1,3.4-3.4,3.4,3.4,0,0,1-3.4,3.4Z" fill="#fff"/>
    <path id="Path_100" data-name="Path 100" d="M66.168,83.108a1.75,1.75,0,0,0,1.75,1.75h6.388a1.75,1.75,0,0,0,0-3.5H67.918A1.75,1.75,0,0,0,66.168,83.108Z" fill="#fff"/>
    <path id="Path_101" data-name="Path 101" d="M64,54.02a5.319,5.319,0,1,0,5.318,5.319A5.319,5.319,0,0,0,64,54.02Zm0,7.138a1.819,1.819,0,1,1,1.818-1.819A1.819,1.819,0,0,1,64,61.158Z" fill="#fff"/>
  </g>
</svg>
