<svg xmlns="http://www.w3.org/2000/svg" width="90px" height="90px" viewBox="0 0 108.5 70.084">
  <g id="_009-cargo_ship" data-name="009-cargo ship" transform="translate(-9.75 -28.958)">
    <path id="Path_76" data-name="Path 76" d="M116.5,53.208h-9.062v-22.5a1.75,1.75,0,0,0-1.75-1.75h-53a1.75,1.75,0,0,0-1.75,1.75V63.2H11.5a1.75,1.75,0,0,0-1.273,2.951L30.61,87.757H11.5a1.75,1.75,0,0,0,0,3.5h105a1.75,1.75,0,0,0,1.75-1.75V54.958a1.75,1.75,0,0,0-1.75-1.75ZM98.126,63.146H54.437V60.757H99.8Zm-33.939-24.8V57.257H61.062V38.348Zm6.625,0V57.257H67.687V38.348Zm6.625,0V57.257H74.312V38.348Zm6.625,0V57.257H80.937V38.348Zm6.625,0V57.257H87.562V38.348Zm6.625,0V57.257H94.187V38.348Zm6.625,0v16.5l-1.686,2.4h-1.439v-18.9ZM57.562,57.257H54.437V38.348h3.125Zm-3.125-24.8h49.5v2.39h-49.5Zm-19.015,55.3L15.557,66.7H99a1.749,1.749,0,0,0,1.433-.746l4.179-5.964,2.3-3.276h7.839V87.757Z" fill="#fff"/>
    <path id="Path_77" data-name="Path 77" d="M42.5,70.771H36.833a1.75,1.75,0,0,0,0,3.5H42.5a1.75,1.75,0,0,0,0-3.5Z" fill="#fff"/>
    <path id="Path_78" data-name="Path 78" d="M54.583,70.771H48.917a1.75,1.75,0,0,0,0,3.5h5.667a1.75,1.75,0,1,0,0-3.5Z" fill="#fff"/>
    <path id="Path_79" data-name="Path 79" d="M66.667,70.771H61a1.75,1.75,0,0,0,0,3.5h5.667a1.75,1.75,0,0,0,0-3.5Z" fill="#fff"/>
    <path id="Path_80" data-name="Path 80" d="M78.75,70.771H73.083a1.75,1.75,0,0,0,0,3.5H78.75a1.75,1.75,0,1,0,0-3.5Z" fill="#fff"/>
    <path id="Path_81" data-name="Path 81" d="M90.833,70.771H85.167a1.75,1.75,0,0,0,0,3.5h5.667a1.75,1.75,0,0,0,0-3.5Z" fill="#fff"/>
    <path id="Path_82" data-name="Path 82" d="M102.917,70.771H97.25a1.75,1.75,0,0,0,0,3.5h5.667a1.75,1.75,0,0,0,0-3.5Z" fill="#fff"/>
    <path id="Path_83" data-name="Path 83" d="M116.5,95.542H46.75a1.75,1.75,0,0,0,0,3.5H116.5a1.75,1.75,0,1,0,0-3.5Z" fill="#fff"/>
    <path id="Path_84" data-name="Path 84" d="M36.833,95.542H11.5a1.75,1.75,0,0,0,0,3.5H36.833a1.75,1.75,0,1,0,0-3.5Z" fill="#fff"/>
  </g>
</svg>
