<svg id="Layer_1" height="90px" viewBox="0 0 128 128" width="90px" xmlns="http://www.w3.org/2000/svg" data-name="Layer 1"><path d="m116.5 53.208h-9.062v-22.5a1.75 1.75 0 0 0 -1.75-1.75h-53a1.75 1.75 0 0 0 -1.75 1.75v32.492h-39.438a1.75 1.75 0 0 0 -1.273 2.951l20.383 21.606h-19.11a1.75 1.75 0 0 0 0 3.5h105a1.75 1.75 0 0 0 1.75-1.75v-34.549a1.75 1.75 0 0 0 -1.75-1.75zm-18.374 9.938h-43.689v-2.389h45.363zm-33.939-24.8v18.911h-3.125v-18.909zm6.625 0v18.911h-3.125v-18.909zm6.625 0v18.911h-3.125v-18.909zm6.625 0v18.911h-3.125v-18.909zm6.625 0v18.911h-3.125v-18.909zm6.625 0v18.911h-3.125v-18.909zm6.625 0v16.5l-1.686 2.405h-1.439v-18.903zm-46.375 18.911h-3.125v-18.909h3.125zm-3.125-24.8h49.5v2.39h-49.5zm-19.015 55.3-19.865-21.057h83.443a1.749 1.749 0 0 0 1.433-.746l4.179-5.964 2.3-3.276h7.839v31.043z"/><path d="m42.5 70.771h-5.667a1.75 1.75 0 0 0 0 3.5h5.667a1.75 1.75 0 0 0 0-3.5z"/><path d="m54.583 70.771h-5.666a1.75 1.75 0 0 0 0 3.5h5.667a1.75 1.75 0 0 0 0-3.5z"/><path d="m66.667 70.771h-5.667a1.75 1.75 0 0 0 0 3.5h5.667a1.75 1.75 0 0 0 0-3.5z"/><path d="m78.75 70.771h-5.667a1.75 1.75 0 0 0 0 3.5h5.667a1.75 1.75 0 0 0 0-3.5z"/><path d="m90.833 70.771h-5.666a1.75 1.75 0 1 0 0 3.5h5.667a1.75 1.75 0 1 0 0-3.5z"/><path d="m102.917 70.771h-5.667a1.75 1.75 0 0 0 0 3.5h5.667a1.75 1.75 0 0 0 0-3.5z"/><path d="m116.5 95.542h-69.75a1.75 1.75 0 1 0 0 3.5h69.75a1.75 1.75 0 0 0 0-3.5z"/><path d="m36.833 95.542h-25.333a1.75 1.75 0 0 0 0 3.5h25.333a1.75 1.75 0 0 0 0-3.5z"/></svg>