<svg xmlns="http://www.w3.org/2000/svg" width="90px" height="90px" viewBox="0 0 108.5 82.831">
  <g id="_044-box" data-name="044-box" transform="translate(-9.75 -22.585)">
    <path id="Path_207" data-name="Path 207" d="M77.1,54.179H50.9a6.854,6.854,0,0,0-6.846,6.846v.56A6.854,6.854,0,0,0,50.9,68.43H77.1a6.854,6.854,0,0,0,6.846-6.846v-.56A6.854,6.854,0,0,0,77.1,54.179Zm3.346,7.406A3.35,3.35,0,0,1,77.1,64.93H50.9a3.35,3.35,0,0,1-3.346-3.346v-.56A3.35,3.35,0,0,1,50.9,57.679H77.1a3.35,3.35,0,0,1,3.346,3.346Z" fill="#fff"/>
    <path id="Path_208" data-name="Path 208" d="M116.5,101.917H105.048V47.477h3.046a1.75,1.75,0,0,0,1.75-1.75V33.082a1.737,1.737,0,0,0-.325-1.01l-.007-.015-6.33-8.748a1.751,1.751,0,0,0-1.418-.724H26.236a1.751,1.751,0,0,0-1.418.724l-6.33,8.748v.012a1.737,1.737,0,0,0-.328,1.014V45.727a1.75,1.75,0,0,0,1.75,1.75h3.046v54.439H11.5a1.75,1.75,0,0,0,0,3.5h105a1.75,1.75,0,1,0,0-3.5ZM27.13,26.083h73.74l3.8,5.248H23.333Zm-5.474,8.748h84.688v9.146H21.656Zm4.8,67.085V47.477h75.1v54.439Z" fill="#fff"/>
  </g>
</svg>
