<svg id="Layer_1" height="90px" viewBox="0 0 128 128" width="90px" xmlns="http://www.w3.org/2000/svg" data-name="Layer 1"><path d="m77.1 54.179h-26.2a6.854 6.854 0 0 0 -6.846 6.846v.56a6.854 6.854 0 0 0 6.846 6.845h26.2a6.854 6.854 0 0 0 6.846-6.846v-.56a6.854 6.854 0 0 0 -6.846-6.845zm3.346 7.406a3.35 3.35 0 0 1 -3.346 3.345h-26.2a3.35 3.35 0 0 1 -3.346-3.346v-.56a3.35 3.35 0 0 1 3.346-3.345h26.2a3.35 3.35 0 0 1 3.346 3.346z"/><path d="m116.5 101.917h-11.452v-54.44h3.046a1.75 1.75 0 0 0 1.75-1.75v-12.645a1.737 1.737 0 0 0 -.325-1.01l-.007-.015-6.33-8.748a1.751 1.751 0 0 0 -1.418-.724h-75.528a1.751 1.751 0 0 0 -1.418.724l-6.33 8.748v.012a1.737 1.737 0 0 0 -.328 1.014v12.644a1.75 1.75 0 0 0 1.75 1.75h3.046v54.439h-11.456a1.75 1.75 0 0 0 0 3.5h105a1.75 1.75 0 0 0 0-3.5zm-89.37-75.834h73.74l3.8 5.248h-81.337zm-5.474 8.748h84.688v9.146h-84.688zm4.8 67.085v-54.439h75.1v54.439z"/></svg>