<svg xmlns="http://www.w3.org/2000/svg" width="40px" height="40px" viewBox="0 0 108.5 73.88">
  <g id="Pol_to_pod" data-name="Pol to pod" transform="translate(-9.75 -27.063)">
    <path id="Path_118" data-name="Path 118" d="M32.75,44.313A1.75,1.75,0,0,0,31,46.063v21.5a1.75,1.75,0,1,0,3.5,0v-21.5a1.75,1.75,0,0,0-1.75-1.75Z" fill="#fff"/>
    <path id="Path_119" data-name="Path 119" d="M45.25,44.313a1.75,1.75,0,0,0-1.75,1.75v21.5a1.75,1.75,0,1,0,3.5,0v-21.5a1.75,1.75,0,0,0-1.75-1.75Z" fill="#fff"/>
    <path id="Path_120" data-name="Path 120" d="M57.75,44.313A1.75,1.75,0,0,0,56,46.063v21.5a1.75,1.75,0,1,0,3.5,0v-21.5a1.75,1.75,0,0,0-1.75-1.75Z" fill="#fff"/>
    <path id="Path_121" data-name="Path 121" d="M70.25,44.313a1.75,1.75,0,0,0-1.75,1.75v21.5a1.75,1.75,0,1,0,3.5,0v-21.5a1.75,1.75,0,0,0-1.75-1.75Z" fill="#fff"/>
    <path id="Path_122" data-name="Path 122" d="M82.75,44.313A1.75,1.75,0,0,0,81,46.063v21.5a1.75,1.75,0,1,0,3.5,0v-21.5a1.75,1.75,0,0,0-1.75-1.75Z" fill="#fff"/>
    <path id="Path_123" data-name="Path 123" d="M95.25,44.313a1.75,1.75,0,0,0-1.75,1.75v21.5a1.75,1.75,0,1,0,3.5,0v-21.5a1.75,1.75,0,0,0-1.75-1.75Z" fill="#fff"/>
    <path id="Path_124" data-name="Path 124" d="M116.5,83.063h-6.583V74.146a1.75,1.75,0,0,0-1.75-1.75h-1.75V41.229h1.75a1.75,1.75,0,0,0,1.75-1.75V28.813a1.75,1.75,0,0,0-1.75-1.75H19.833a1.75,1.75,0,0,0-1.75,1.75V39.479a1.75,1.75,0,0,0,1.75,1.75h1.75V72.4h-1.75a1.75,1.75,0,0,0-1.75,1.75v8.917H11.5a1.75,1.75,0,0,0-1.75,1.75v6.25a1.75,1.75,0,0,0,1.75,1.75H22.706a9.865,9.865,0,0,0,19.421,0H85.873a9.865,9.865,0,0,0,19.421,0H116.5a1.75,1.75,0,0,0,1.75-1.75v-6.25a1.75,1.75,0,0,0-1.75-1.754Zm-94.917-52.5h84.833V37.73H21.583Zm3.5,10.667h77.833V72.4H25.083Zm-3.5,34.67h84.833v7.167H101.35a9.8,9.8,0,0,0-11.533,0H38.183a9.8,9.8,0,0,0-11.533,0H21.583Zm64.29,13.417H42.127a9.789,9.789,0,0,0-.931-2.75H86.8a9.789,9.789,0,0,0-.927,2.746ZM13.25,86.563H23.637a9.789,9.789,0,0,0-.931,2.75H13.25ZM32.417,97.438a6.382,6.382,0,0,1-6.375-6.372V91.06a6.375,6.375,0,1,1,6.376,6.378Zm63.167,0a6.375,6.375,0,1,1,6.375-6.381v.013a6.382,6.382,0,0,1-6.376,6.368Zm19.167-8.125h-9.456a9.789,9.789,0,0,0-.931-2.75H114.75Z" fill="#fff"/>
  </g>
</svg>
