<svg xmlns="http://www.w3.org/2000/svg" width="40px" height="40px" viewBox="0 0 108.498 94.992">
  <path id="pol_to_door" data-name="pol to door" d="M118.222,33.193a1.752,1.752,0,0,0-1.063-1.306L79.55,16.632a1.75,1.75,0,0,0-1.849.339L63.046,30.582,25.733,45.716c-.007,0-.008.01-.015.013a1.736,1.736,0,0,0-.517.327L10.31,59.885a1.749,1.749,0,0,0,.532,2.9l13.8,5.6V93.4A1.749,1.749,0,0,0,25.695,95l37.6,16.351a1.646,1.646,0,0,0,1.368-.008c.008,0,.019.011.026.008L102.3,95.006a1.749,1.749,0,0,0,1.053-1.6V48.1L117.69,34.791a1.751,1.751,0,0,0,.532-1.6ZM65.75,59.994V34.681l31.2,12.657Zm-3.5-25.313V59.994L31.05,47.338Zm-35.484,14.7,34.029,13.8-12.062,11.2L27.078,65.6l-.013,0L14.7,60.581Zm1.376,20.428L48.45,78.043A1.749,1.749,0,0,0,50.3,77.7L62.251,66.6v40.472L28.142,92.254ZM65.75,107.078V63.771L99.858,49.936V92.254ZM101.234,45.3,67.205,31.5,79.267,20.3l34.028,13.8Z" transform="translate(-9.753 -16.503)"/>
</svg>
