<svg xmlns="http://www.w3.org/2000/svg" width="60px" height="60px" viewBox="0 0 108.5 108.501">
  <path id="_013-crane" data-name="013-crane" d="M116.5,21.25a1.75,1.75,0,0,0,1.75-1.75v-8a1.75,1.75,0,0,0-1.75-1.75H11.5A1.75,1.75,0,0,0,9.75,11.5v8a1.75,1.75,0,0,0,1.75,1.75h6.577L33.61,43.233H11.5a1.75,1.75,0,0,0-1.75,1.75v8a1.75,1.75,0,0,0,1.75,1.75H62.25v3.184H60.917a1.75,1.75,0,0,0-1.75,1.75v5.979H56.35A1.75,1.75,0,0,0,54.6,67.4V89a1.75,1.75,0,0,0,1.75,1.75h5.9v1.994A14.393,14.393,0,0,0,67.6,104.172a5.856,5.856,0,0,1,2.3,4.764,6.011,6.011,0,0,1-5.814,5.815,5.727,5.727,0,0,1-4.228-1.7,5.855,5.855,0,0,1-1.758-4.2,1.75,1.75,0,0,0-3.5,0,9.4,9.4,0,0,0,9.4,9.4h.135a9.462,9.462,0,0,0,9.266-9.267,9.326,9.326,0,0,0-3.67-7.586,10.877,10.877,0,0,1-3.979-8.654v-2h5.9A1.75,1.75,0,0,0,73.4,89V67.4a1.75,1.75,0,0,0-1.75-1.75H68.833V59.667a1.75,1.75,0,0,0-1.75-1.75H65.75V54.733H116.5a1.75,1.75,0,0,0,1.75-1.75v-8a1.75,1.75,0,0,0-1.75-1.75h-6.577L94.39,21.25Zm-46.6,66H58.1V69.15H69.9Zm-7.233-21.6V61.417h2.666v4.229Zm-4.29-44.4H87.63L73,41.95ZM69.623,43.233H40.37L55,22.533ZM13.25,13.25h101.5v4.5H13.25Zm38.367,8L36.99,41.95,22.363,21.25ZM114.75,51.233H13.25v-4.5h101.5Zm-38.367-8,14.627-20.7,14.627,20.7Z" transform="translate(-9.75 -9.75)" fill="#fff"/>
</svg>
