<svg xmlns="http://www.w3.org/2000/svg" width="40px" height="40px" viewBox="0 0 84.5 108.25">
  <path id="_012-container" data-name="012-container" d="M104.5,62.25h-3.8L69.238,52.221A8.092,8.092,0,0,0,68.952,39.6a8.771,8.771,0,0,1-3.2-6.979V31.25h4.625a1.75,1.75,0,0,0,1.75-1.75v-18a1.75,1.75,0,0,0-1.75-1.75H57.625a1.75,1.75,0,0,0-1.75,1.75v18a1.75,1.75,0,0,0,1.75,1.75H62.25v1.37a12.283,12.283,0,0,0,4.567,9.753,4.591,4.591,0,0,1,1.807,3.735,4.712,4.712,0,0,1-4.558,4.558H64a4.626,4.626,0,0,1-4.625-4.624,1.75,1.75,0,1,0-3.5,0,8.067,8.067,0,0,0,2.42,5.785c.159.156.326.3.494.443l-31.31,9.98H23.5A1.75,1.75,0,0,0,21.75,64v52.247A1.75,1.75,0,0,0,23.5,118h81a1.75,1.75,0,0,0,1.75-1.75V64A1.75,1.75,0,0,0,104.5,62.25Zm-45.125-49h9.25v14.5h-9.25ZM88.25,105.5V74.75h5.5V105.5Zm-9,0V74.75h5.5V105.5Zm-9,0V74.75h5.5V105.5Zm-9,0V74.75h5.5V105.5Zm-9,0V74.75h5.5V105.5Zm-9,0V74.75h5.5V105.5Zm-9,0V74.75h5.5V105.5Zm-9,0V74.75h5.5V105.5Zm72-30.747h5.5V105.5h-5.5Zm-33.159-20.5,25.09,8H39ZM25.25,65.75h77.5v5.5H25.25Zm77.5,48.747H25.25V109h77.5Z" transform="translate(-21.75 -9.75)" fill="#fff"/>
</svg>
