<svg id="Layer_1" height="60px" viewBox="0 0 128 128" width="60px" xmlns="http://www.w3.org/2000/svg" data-name="Layer 1"><path d="m116.5 21.25a1.75 1.75 0 0 0 1.75-1.75v-8a1.75 1.75 0 0 0 -1.75-1.75h-105a1.75 1.75 0 0 0 -1.75 1.75v8a1.75 1.75 0 0 0 1.75 1.75h6.577l15.533 21.983h-22.11a1.75 1.75 0 0 0 -1.75 1.75v8a1.75 1.75 0 0 0 1.75 1.75h50.75v3.184h-1.333a1.75 1.75 0 0 0 -1.75 1.75v5.979h-2.817a1.75 1.75 0 0 0 -1.75 1.754v21.6a1.75 1.75 0 0 0 1.75 1.75h5.9v1.994a14.393 14.393 0 0 0 5.345 11.428 5.856 5.856 0 0 1 2.3 4.764 6.011 6.011 0 0 1 -5.814 5.815 5.727 5.727 0 0 1 -4.228-1.7 5.855 5.855 0 0 1 -1.758-4.2 1.75 1.75 0 0 0 -3.5 0 9.4 9.4 0 0 0 9.4 9.4h.135a9.462 9.462 0 0 0 9.266-9.267 9.326 9.326 0 0 0 -3.67-7.586 10.877 10.877 0 0 1 -3.979-8.654v-1.996h5.9a1.75 1.75 0 0 0 1.753-1.748v-21.6a1.75 1.75 0 0 0 -1.75-1.75h-2.817v-5.983a1.75 1.75 0 0 0 -1.75-1.75h-1.333v-3.184h50.75a1.75 1.75 0 0 0 1.75-1.75v-8a1.75 1.75 0 0 0 -1.75-1.75h-6.577l-15.533-21.983zm-46.6 66h-11.8v-18.1h11.8zm-7.233-21.6v-4.233h2.666v4.229zm-4.29-44.4h29.253l-14.63 20.7zm11.246 21.983h-29.253l14.63-20.7zm-56.373-29.983h101.5v4.5h-101.5zm38.367 8-14.627 20.7-14.627-20.7zm63.133 29.983h-101.5v-4.5h101.5zm-38.367-8 14.627-20.7 14.627 20.7z"/></svg>