<svg id="Layer_1" height="40px" viewBox="0 0 128 128" width="40px" xmlns="http://www.w3.org/2000/svg" data-name="Layer 1"><path d="m104.5 62.25h-3.8l-31.462-10.029a8.092 8.092 0 0 0 -.286-12.621 8.771 8.771 0 0 1 -3.2-6.979v-1.371h4.625a1.75 1.75 0 0 0 1.75-1.75v-18a1.75 1.75 0 0 0 -1.75-1.75h-12.752a1.75 1.75 0 0 0 -1.75 1.75v18a1.75 1.75 0 0 0 1.75 1.75h4.625v1.37a12.283 12.283 0 0 0 4.567 9.753 4.591 4.591 0 0 1 1.807 3.735 4.712 4.712 0 0 1 -4.558 4.558h-.066a4.626 4.626 0 0 1 -4.625-4.625 1.75 1.75 0 0 0 -3.5 0 8.067 8.067 0 0 0 2.42 5.785c.159.156.326.3.494.443l-31.31 9.98h-3.979a1.75 1.75 0 0 0 -1.75 1.751v52.247a1.75 1.75 0 0 0 1.75 1.753h81a1.75 1.75 0 0 0 1.75-1.75v-52.25a1.75 1.75 0 0 0 -1.75-1.75zm-45.125-49h9.25v14.5h-9.25zm28.875 92.25v-30.75h5.5v30.75zm-9 0v-30.75h5.5v30.75zm-9 0v-30.75h5.5v30.75zm-9 0v-30.75h5.5v30.75zm-9 0v-30.75h5.5v30.75zm-9 0v-30.75h5.5v30.75zm-9 0v-30.75h5.5v30.75zm-9 0v-30.75h5.5v30.75zm72-30.747h5.5v30.747h-5.5zm-33.159-20.5 25.09 8h-50.181zm-38.841 11.497h77.5v5.5h-77.5zm77.5 48.747h-77.5v-5.497h77.5z"/></svg>