<svg id="Layer_1" height="90px" viewBox="0 0 128 128" width="90px" xmlns="http://www.w3.org/2000/svg" data-name="Layer 1"><path d="m107.409 22.637c-.009-.011-.009-.022-.018-.032l-11.046-12.275a1.749 1.749 0 0 0 -1.3-.58h-62.089a1.749 1.749 0 0 0 -1.3.58l-11.047 12.27c-.005.006-.006.016-.011.023a1.736 1.736 0 0 0 -.439 1.148v69.449a1.75 1.75 0 0 0 1.75 1.75h17.18v21.53a1.75 1.75 0 0 0 3.5 0v-21.53h4.211v9.565a1.75 1.75 0 0 0 3.5 0v-9.565h4.211v21.53a1.75 1.75 0 0 0 3.5 0v-21.53h4.211v9.565a1.75 1.75 0 0 0 3.5 0v-9.565h4.266v21.53a1.75 1.75 0 0 0 3.5 0v-21.53h4.212v9.565a1.75 1.75 0 0 0 3.5 0v-9.565h4.212v21.53a1.75 1.75 0 0 0 3.5 0v-21.53h17.178a1.75 1.75 0 0 0 1.75-1.75v-69.445a1.735 1.735 0 0 0 -.431-1.138zm-5.248-.612h-25.516l-4.935-8.775h22.555zm-34.467-8.775 4.935 8.775h-17.258l4.935-8.775zm-13.565 12.275h19.742v14.5l-9.064-4.711a1.75 1.75 0 0 0 -1.613 0l-9.064 4.711zm-20.394-12.275h22.555l-4.935 8.775h-25.516zm70.6 78.22h-15.424v-7.743a1.75 1.75 0 1 0 -3.5 0v7.743h-4.211v-19.708a1.75 1.75 0 0 0 -3.5 0v19.708h-4.212v-7.743a1.75 1.75 0 0 0 -3.5 0v7.743h-4.265v-19.708a1.75 1.75 0 0 0 -3.5 0v19.708h-4.211v-7.743a1.75 1.75 0 0 0 -3.5 0v7.743h-4.212v-19.708a1.75 1.75 0 0 0 -3.5 0v19.708h-4.211v-7.743a1.75 1.75 0 0 0 -3.5 0v7.743h-15.429v-65.945h26.969v17.386a1.75 1.75 0 0 0 2.557 1.553l10.814-5.622 10.814 5.621a1.75 1.75 0 0 0 2.557-1.553v-17.385h26.969z"/></svg>