<svg xmlns="http://www.w3.org/2000/svg" width="90px" height="90px" viewBox="0 0 87.681 108.5">
  <path id="_015-package" data-name="015-package" d="M107.409,22.637c-.009-.011-.009-.022-.018-.032L96.345,10.33a1.749,1.749,0,0,0-1.3-.58H32.956a1.749,1.749,0,0,0-1.3.58L20.609,22.6c0,.006-.006.016-.011.023a1.736,1.736,0,0,0-.439,1.148V93.22a1.75,1.75,0,0,0,1.75,1.75h17.18V116.5a1.75,1.75,0,1,0,3.5,0V94.97H46.8v9.565a1.75,1.75,0,1,0,3.5,0V94.97h4.211V116.5a1.75,1.75,0,1,0,3.5,0V94.97h4.211v9.565a1.75,1.75,0,0,0,3.5,0V94.97h4.266V116.5a1.75,1.75,0,0,0,3.5,0V94.97H77.7v9.565a1.75,1.75,0,0,0,3.5,0V94.97h4.212V116.5a1.75,1.75,0,1,0,3.5,0V94.97H106.09a1.75,1.75,0,0,0,1.75-1.75V23.775a1.735,1.735,0,0,0-.431-1.138Zm-5.248-.612H76.645L71.71,13.25H94.265ZM67.694,13.25l4.935,8.775H55.371l4.935-8.775ZM54.129,25.525H73.871v14.5l-9.064-4.711a1.75,1.75,0,0,0-1.613,0L54.13,40.025ZM33.735,13.25H56.29l-4.935,8.775H25.839Zm70.6,78.22H88.911V83.727a1.75,1.75,0,0,0-3.5,0V91.47H81.2V71.762a1.75,1.75,0,1,0-3.5,0V91.47H73.488V83.727a1.75,1.75,0,0,0-3.5,0V91.47H65.723V71.762a1.75,1.75,0,1,0-3.5,0V91.47H58.012V83.727a1.75,1.75,0,0,0-3.5,0V91.47H50.3V71.762a1.75,1.75,0,1,0-3.5,0V91.47H42.589V83.727a1.75,1.75,0,0,0-3.5,0V91.47H23.66V25.525H50.629V42.911a1.75,1.75,0,0,0,2.557,1.553L64,38.842l10.814,5.621a1.75,1.75,0,0,0,2.557-1.553V25.525H104.34Z" transform="translate(-20.159 -9.75)" fill="#fff"/>
</svg>
