<?xml version="1.0"?>
<svg xmlns="http://www.w3.org/2000/svg" id="Layer_1" data-name="Layer 1" viewBox="0 0 128 128" width="90" height="90"><title>CARGO</title><path d="M85.125,85.484h16.75a1.75,1.75,0,0,0,1.429-2.761l-7.958-11.25a1.751,1.751,0,0,0-1.429-.739H85.125a1.75,1.75,0,0,0-1.75,1.75v11.25A1.75,1.75,0,0,0,85.125,85.484Zm1.75-11.25h6.136l5.482,7.75H86.875Z"/><path d="M116.5,108.984H101.863a9.834,9.834,0,0,0,2.181-4.625H109a1.75,1.75,0,0,0,1.75-1.75V84.859a1.748,1.748,0,0,0-.306-.988L98.361,66.205a1.75,1.75,0,0,0-1.444-.762H79.667a1.75,1.75,0,0,0-1.75,1.75V81.984h-1.5V49.547a1.75,1.75,0,0,0-1.75-1.75H70.134L52.2,39.908a5.247,5.247,0,0,0,1.273-3.316,5.332,5.332,0,0,0-2.07-4.278,4.109,4.109,0,0,1-1.482-3.266h1.8a1.75,1.75,0,0,0,1.75-1.75V19.016H116.5a1.75,1.75,0,0,0,0-3.5H11.5a1.75,1.75,0,0,0,0,3.5H42.863V27.3a1.75,1.75,0,0,0,1.75,1.75h1.8a7.625,7.625,0,0,0,2.847,6.039,1.791,1.791,0,0,1,.705,1.457,1.86,1.86,0,0,1-1.774,1.777h-.007A1.7,1.7,0,0,1,46.9,37.8a1.791,1.791,0,0,1-.537-1.284,1.75,1.75,0,1,0-3.5,0,5.243,5.243,0,0,0,1.29,3.428L26.3,47.8H21.665a1.75,1.75,0,0,0-1.75,1.75V81.984H19a1.75,1.75,0,0,0-1.75,1.75v18.875a1.75,1.75,0,0,0,1.75,1.75h6.934a9.834,9.834,0,0,0,2.181,4.625H11.5a1.75,1.75,0,0,0,0,3.5h105a1.75,1.75,0,0,0,0-3.5ZM46.363,19.016h3.606v6.532H46.363Zm-1.008,85.344H84.623a9.834,9.834,0,0,0,2.181,4.625H43.173A9.834,9.834,0,0,0,45.354,104.359Zm42.6-1.75a6.375,6.375,0,0,1,12.75,0v.006a6.375,6.375,0,0,1-12.75,0ZM81.417,68.943H95.993L107.25,85.4v15.459h-3.206a9.865,9.865,0,0,0-19.421,0H81.417V68.943ZM63.166,76.1V57.186h3.125V76.1Zm-6.625,0V57.186h3.125V76.1Zm-6.625,0V57.186h3.125V76.1Zm-6.625,0V57.186h3.125V76.1Zm-6.625,0V57.186h3.125V76.1Zm-6.625,0V57.186h3.125V76.1Zm-6.625,0V57.186H26.54V76.1ZM69.792,57.186h3.125V76.1H69.792Zm-21.575-15.2L61.439,47.8H34.994ZM23.415,51.3h49.5v2.389h-49.5Zm0,28.3h49.5v2.389h-49.5ZM20.75,85.484H77.917v15.375H45.354a9.865,9.865,0,0,0-19.421,0H20.75Zm8.519,17.125a6.375,6.375,0,1,1,6.375,6.375A6.382,6.382,0,0,1,29.269,102.609Z"/></svg>
