<svg id="Layer_1" height="90" viewBox="0 0 128 128" width="90" xmlns="http://www.w3.org/2000/svg" data-name="Layer 1"><path d="m118.25 56.3a34.141 34.141 0 0 0 -34.1-34.1c-9.576 0-23.7 3.884-35.156 9.663-10.238 5.165-17.124 11.137-20.158 17.315l-4.136-16.552a1.749 1.749 0 0 0 -1-1.18l-11.5-5a1.75 1.75 0 0 0 -2.437 1.8l3.026 26.3h-1.289a1.75 1.75 0 0 0 0 3.5h1.287l-3.026 26.3a1.75 1.75 0 0 0 2.437 1.8l11.5-5a1.749 1.749 0 0 0 1-1.18l4.138-16.552c2.7 5.506 8.464 10.841 16.914 15.586l4.528 25.355a1.75 1.75 0 0 0 1.722 1.445h28.75a1.75 1.75 0 0 0 1.732-1.5l1.986-13.9a34.137 34.137 0 0 0 33.782-34.1zm-87.687 0c0-1 3.518-4.3 19.569-7.6a189.57 189.57 0 0 1 34.016-3.823c18.035 0 30.6 6.021 30.6 11.426s-12.568 11.427-30.6 11.427a189.565 189.565 0 0 1 -34.016-3.83c-16.051-3.3-19.568-6.6-19.569-7.6zm20.005-21.313c11.008-5.556 24.5-9.288 33.58-9.288a30.653 30.653 0 0 1 29.681 23.151c-5.81-4.5-16.8-7.476-29.681-7.476a193.419 193.419 0 0 0 -34.72 3.9c-8.821 1.813-14.154 3.664-17.389 5.339 2.723-5.413 9.142-10.888 18.529-15.626zm-29.057 43.303-7.926 3.445 2.725-23.684h3.846a1.75 1.75 0 0 0 0-3.5h-3.846l-2.725-23.685 7.926 3.445 5.5 21.989zm57.721 24.01h-25.767l-3.791-21.227c10.1 4.988 22.131 8.493 31.277 9.193zm4.915-15.4c-9.077 0-22.572-3.732-33.58-9.288-9.385-4.734-15.804-10.212-18.528-15.618 3.235 1.675 8.567 3.525 17.388 5.338a193.414 193.414 0 0 0 34.72 3.9c12.879 0 23.871-2.977 29.681-7.476a30.654 30.654 0 0 1 -29.681 23.144z"/><path d="m83.518 33.1a23.132 23.132 0 0 1 15.662 6.088 1.75 1.75 0 0 0 2.364-2.582 26.628 26.628 0 0 0 -18.026-7 1.75 1.75 0 0 0 0 3.5z"/></svg>